# xmcd
#
# Track frame offsets: 
#        150
#        22793
#        40425
#        59359
#        73624
#        89759
#        105375
#        122553
#        135764
#        155583
#        164556
#        181308
#        199206
#
# Disc length: 3003 seconds
#
# Revision: 1
# Processed by: cddbd v1.5.2PL0 Copyright (c) Steve Scherf et al.
# Submitted via: ExactAudioCopy v0.99pb3
#
DISCID=ad0bb90d
DTITLE=Various Artist - The IMUS Ranch Record II
DYEAR=1900
DGENRE=Country
TTITLE0=Jamey Johnson - Two Out Of Three Ain't Bad
TTITLE1=Sam Moore - BOP
TTITLE2=Elizabeth Cook - You Move Too Fast
TTITLE3=Cheap Trick - Don't Be Cruel
TTITLE4=Hayes Carll - King Of The Road
TTITLE5=The Blind Boys of Alabama - You Can't Be A Beacon If Your Ligh
TTITLE5=t Don't Shine
TTITLE6=Levon Helm - It Takes A Lot To Laugh, It Takes A Train To Cry
TTITLE7=Kinky Freedman - Lover Please
TTITLE8=Charlie Robinson - My Hometown
TTITLE9=The Newbeats - Bread and Butter
TTITLE10=Adam Duritz - Carmelita
TTITLE11=Delbert McClinton - Lone Star Blues
TTITLE12=Phantom Blues Band - Part Time Love
EXTD=
EXTT0=
EXTT1=
EXTT2=
EXTT3=
EXTT4=
EXTT5=
EXTT6=
EXTT7=
EXTT8=
EXTT9=
EXTT10=
EXTT11=
EXTT12=
PLAYORDER=
